<svg width="26" height="23" viewBox="0 0 26 23" fill="none" xmlns="http://www.w3.org/2000/svg">
<g clip-path="url(#clip0_1_8679)" filter="url(#filter0_d_1_8679)">
<path d="M21.7078 8.24241C20.6976 6.94715 19.389 5.87577 17.9237 5.14417C16.4279 4.39735 14.8187 4.00986 13.1388 3.98954C13.0925 3.98827 12.9068 3.98827 12.8605 3.98954C11.1807 4.00989 9.57141 4.39735 8.07559 5.14417C6.61024 5.87577 5.30177 6.94712 4.29152 8.24241C3.90234 8.74139 3.90234 9.43836 4.29152 9.93733C5.30173 11.2326 6.61024 12.304 8.07559 13.0356C9.57141 13.7824 11.1806 14.1699 12.8605 14.1902C12.9068 14.1915 13.0925 14.1915 13.1388 14.1902C14.8186 14.1699 16.4279 13.7824 17.9237 13.0356C19.389 12.304 20.6975 11.2326 21.7078 9.93733C22.097 9.43829 22.097 8.74139 21.7078 8.24241ZM8.40272 12.3804C7.03444 11.6973 5.81248 10.6967 4.86892 9.48698C4.68657 9.25315 4.68657 8.92659 4.86892 8.69276C5.81244 7.48301 7.0344 6.48246 8.40272 5.79931C8.79133 5.60531 9.18818 5.43755 9.59237 5.29552C8.55252 6.23025 7.89738 7.58489 7.89738 9.08985C7.89738 10.5949 8.55255 11.9496 9.59251 12.8843C9.18832 12.7423 8.79137 12.5745 8.40272 12.3804ZM12.9997 13.4599C10.59 13.4599 8.62961 11.4995 8.62961 9.08982C8.62961 6.68014 10.59 4.7198 12.9997 4.7198C15.4093 4.7198 17.3697 6.68018 17.3697 9.08985C17.3697 11.4995 15.4093 13.4599 12.9997 13.4599ZM21.1304 9.48694C20.1869 10.6967 18.9649 11.6972 17.5966 12.3804C17.2085 12.5742 16.8119 12.7412 16.4082 12.8831C17.4473 11.9484 18.102 10.5942 18.102 9.08982C18.102 7.58464 17.4466 6.22983 16.4066 5.2951C16.8109 5.43716 17.2079 5.60514 17.5967 5.79923C18.9649 6.48239 20.1869 7.48294 21.1305 8.69269C21.3128 8.92655 21.3128 9.25312 21.1304 9.48694Z" fill="#8C91BA"/>
<path d="M12.9999 7.21967C11.9687 7.21967 11.1298 8.0586 11.1298 9.0898C11.1298 10.121 11.9687 10.9599 12.9999 10.9599C14.0311 10.9599 14.87 10.121 14.87 9.0898C14.8701 8.0586 14.0311 7.21967 12.9999 7.21967ZM12.9999 10.2277C12.3725 10.2277 11.862 9.71731 11.862 9.0898C11.862 8.46233 12.3724 7.9519 12.9999 7.9519C13.6273 7.9519 14.1378 8.46233 14.1378 9.0898C14.1378 9.71731 13.6273 10.2277 12.9999 10.2277Z" fill="#8C91BA"/>
</g>
<defs>
<filter id="filter0_d_1_8679" x="0" y="0.0898438" width="26" height="26" filterUnits="userSpaceOnUse" color-interpolation-filters="sRGB">
<feFlood flood-opacity="0" result="BackgroundImageFix"/>
<feColorMatrix in="SourceAlpha" type="matrix" values="0 0 0 0 0 0 0 0 0 0 0 0 0 0 0 0 0 0 127 0" result="hardAlpha"/>
<feOffset dy="4"/>
<feGaussianBlur stdDeviation="2"/>
<feComposite in2="hardAlpha" operator="out"/>
<feColorMatrix type="matrix" values="0 0 0 0 0 0 0 0 0 0 0 0 0 0 0 0 0 0 0.25 0"/>
<feBlend mode="normal" in2="BackgroundImageFix" result="effect1_dropShadow_1_8679"/>
<feBlend mode="normal" in="SourceGraphic" in2="effect1_dropShadow_1_8679" result="shape"/>
</filter>
<clipPath id="clip0_1_8679">
<rect width="18" height="18" fill="white" transform="matrix(-1 0 0 1 22 0.0898438)"/>
</clipPath>
</defs>
</svg>
